<svg xmlns="http://www.w3.org/2000/svg" version="1.1" xmlns:xlink="http://www.w3.org/1999/xlink" xmlns:svgjs="http://svgjs.dev/svgjs" width="2000" height="636" viewBox="0 0 2000 636"><g transform="matrix(1,0,0,1,3.9917967797550773,-151.31482937043492)"><svg viewBox="0 0 396 126" data-background-color="#ffffff" preserveAspectRatio="xMidYMid meet" height="636" width="2000" xmlns="http://www.w3.org/2000/svg" xmlns:xlink="http://www.w3.org/1999/xlink"><g id="tight-bounds" transform="matrix(1,0,0,1,0.2400000000000091,30.850949899449944)"><svg viewBox="0 0 395.52 64.29810020110004" height="64.29810020110004" width="395.52"><g><svg viewBox="0 0 675.4973022003953 109.81288739495797" height="64.29810020110004" width="395.52"><g><rect width="9.85377065888269" height="109.81288739495797" x="244.32832039260504" y="0" fill="#202046" opacity="1" stroke-width="0" stroke="transparent" fill-opacity="1" class="rect-qz-0" data-fill-palette-color="primary" rx="1%" id="qz-0" data-palette-color="#202046"></rect></g><g transform="matrix(1,0,0,1,279.9773022003953,0.2731663865546139)"><svg viewBox="0 0 395.52 109.26655462184874" height="109.26655462184874" width="395.52"><g id="textblocktransform"><svg viewBox="0 0 395.52 109.26655462184874" height="109.26655462184874" width="395.52" id="textblock"><g><svg viewBox="0 0 395.52 109.26655462184874" height="109.26655462184874" width="395.52"><g transform="matrix(1,0,0,1,0,0)"><svg width="395.52" viewBox="0.49 -37.3 139.44 38.519999999999996" height="109.26655462184874" data-palette-color="#202046"><path d="M17.87-5.62L17.87-5.62Q17.77-5.32 17.77-5.08L17.77-5.08Q17.77-4.79 17.85-4.49 17.92-4.2 17.92-3.91L17.92-3.91Q17.82-3.03 17.77-2.83L17.77-2.83Q17.48-2.59 16.58-2.27 15.67-1.95 14.43-1.64 13.18-1.32 11.74-1 10.3-0.68 8.98-0.39 7.67-0.1 6.57 0.12 5.47 0.34 4.93 0.44L4.93 0.44Q4.69 0.49 4.47 0.56 4.25 0.63 4 0.73L4 0.73Q3.76 0.78 3.52 0.76 3.27 0.73 3.03 0.83L3.03 0.83Q2.88 0.83 2.76 0.68 2.64 0.54 2.54 0.44L2.54 0.44Q2.54 0.15 2.44 0 2.34-0.15 2.22-0.24 2.1-0.34 2-0.46 1.9-0.59 1.9-0.88L1.9-0.88Q1.81-1.27 1.64-1.49 1.46-1.71 1.46-1.9L1.46-1.9Q1.27-2.54 1.27-3.03L1.27-3.03Q1.27-3.27 1.32-3.42 1.37-3.56 1.46-3.71L1.46-3.71Q1.76-3.81 1.9-3.96 2.05-4.1 2.29-4.2L2.29-4.2Q2.59-4.35 3.13-4.47 3.66-4.59 4.3-4.74 4.93-4.88 5.52-5.03 6.1-5.18 6.49-5.32L6.49-5.32Q6.64-5.37 6.79-5.37 6.93-5.37 7.03-5.47L7.03-5.47Q6.93-6.25 6.91-7.03 6.88-7.81 6.79-8.54L6.79-8.54Q6.79-8.89 6.74-9.23 6.69-9.57 6.69-9.86L6.69-9.86 6.74-10.89Q6.74-12.74 6.59-14.6 6.45-16.46 6.45-18.31L6.45-18.31 6.45-19.97Q6.45-20.36 6.42-20.7 6.4-21.04 6.4-21.44L6.4-21.44Q6.4-22.36 6.42-23.22 6.45-24.07 6.45-25L6.45-25 6.45-29.49Q5.37-29.74 4.44-29.47 3.52-29.2 2.54-29.1L2.54-29.1Q2.2-29.44 2.15-29.83L2.15-29.83Q1.76-30.37 1.61-30.52 1.46-30.66 1.27-31.35L1.27-31.35Q0.93-32.03 0.71-32.2 0.49-32.37 0.49-32.76L0.49-32.76Q0.49-33.01 0.61-33.11 0.73-33.2 0.83-33.45L0.83-33.45Q1.27-33.64 1.34-33.72 1.42-33.79 1.51-33.84L1.51-33.84Q2-34.18 2.64-34.33 3.27-34.47 3.86-34.67L3.86-34.67Q4.35-34.81 4.79-35.01 5.22-35.21 5.76-35.35L5.76-35.35Q6.4-35.55 7.03-35.74 7.67-35.94 8.25-36.08L8.25-36.08Q8.64-36.18 9.01-36.16 9.38-36.13 9.77-36.38L9.77-36.38Q10.4-36.28 11.11-36.4 11.82-36.52 12.65-36.72 13.48-36.91 14.26-37.06 15.04-37.21 15.43-37.3L15.43-37.3Q15.67-37.21 15.77-37.06 15.87-36.91 16.06-36.87L16.06-36.87Q16.11-36.72 16.16-36.5 16.21-36.28 16.36-36.18L16.36-36.18Q16.36-35.64 16.6-35.4L16.6-35.4Q16.55-34.91 16.77-34.3 16.99-33.69 16.99-33.15L16.99-33.15Q16.75-32.42 16.19-32.23 15.63-32.03 14.97-31.88 14.31-31.74 13.67-31.62 13.04-31.49 12.65-31.35L12.65-31.35Q12.65-30.66 12.67-29.93 12.7-29.2 12.7-28.47L12.7-28.47Q12.7-27.78 12.67-27.1 12.65-26.42 12.65-25.73L12.65-25.73Q12.65-24.71 12.62-23.63 12.6-22.56 12.6-21.48L12.6-21.48Q12.6-19.97 12.65-18.46 12.7-16.94 12.79-15.43L12.79-15.43Q12.84-15.19 12.84-14.7L12.84-14.7Q12.84-12.74 12.92-10.86 12.99-8.98 13.18-6.98L13.18-6.98Q13.82-6.93 14.16-7.18L14.16-7.18Q14.4-7.18 14.62-7.28 14.84-7.37 15.04-7.47L15.04-7.47Q15.33-7.52 15.84-7.64 16.36-7.76 16.5-7.76L16.5-7.76Q16.94-7.71 17.04-7.76L17.04-7.76Q17.19-7.47 17.48-7.32L17.48-7.32Q17.58-6.88 17.65-6.47 17.72-6.05 17.87-5.62ZM42.53-34.91L42.53-34.91Q42.43-34.72 42.45-34.52 42.48-34.33 42.48-34.08L42.48-34.08Q42.38-33.5 42.48-33.5 42.58-33.5 42.58-33.4L42.58-33.4 42.23-32.91Q42.23-32.62 42.11-32.37 41.99-32.13 42.04-31.79L42.04-31.79Q41.89-31.54 41.77-31.3 41.65-31.05 41.4-30.81L41.4-30.81 40.77-30.81Q40.23-30.81 39.62-30.74 39.01-30.66 38.43-30.66L38.43-30.66Q38.33-30.66 38.18-30.69 38.03-30.71 37.89-30.71L37.89-30.71Q37.79-30.71 37.64-30.69 37.5-30.66 37.3-30.66L37.3-30.66Q36.57-30.66 35.86-30.74 35.15-30.81 34.37-30.81L34.37-30.81Q34.18-30.81 33.98-30.81 33.79-30.81 33.54-30.76L33.54-30.76Q33.49-29.93 33.47-29.08 33.44-28.22 33.44-27.34L33.44-27.34Q33.44-27.1 33.4-26.83 33.35-26.56 33.35-26.32L33.35-26.32Q33.3-25.68 33.27-25.1 33.25-24.51 33.25-23.88L33.25-23.88Q33.25-22.51 33.27-21.14 33.3-19.78 33.35-18.36L33.35-18.36Q33.4-17.63 33.44-16.94 33.49-16.26 33.49-15.53L33.49-15.53Q33.49-13.87 33.44-12.23 33.4-10.6 33.4-8.94L33.4-8.94Q33.4-8.4 33.35-7.93 33.3-7.47 33.3-6.93L33.3-6.93Q33.3-5.81 33.35-4.69 33.4-3.56 33.4-2.44L33.4-2.44Q33.4-1.9 33.37-1.37 33.35-0.83 33.35-0.29L33.35-0.29Q33.1 0.1 33.01 0.39 32.91 0.68 32.42 0.68L32.42 0.68Q32.08 0.59 32.1 0.46 32.13 0.34 32.03 0.24L32.03 0.24Q31.59 0.2 31.37 0.32 31.15 0.44 30.86 0.54L30.86 0.54Q30.71 0.49 30.54 0.49 30.37 0.49 30.22 0.49L30.22 0.49Q30.12 0.49 30.03 0.56 29.93 0.63 29.59 0.63L29.59 0.63Q29.29 0.68 29.25 0.54 29.2 0.39 28.95 0.39L28.95 0.39Q28.71 0.54 28.39 0.61 28.07 0.68 27.78 0.68L27.78 0.68Q27.49 0.49 27.51 0.32 27.54 0.15 27.44-0.05L27.44-0.05Q27.39-0.15 27.27-0.32 27.15-0.49 27.05-0.59L27.05-0.59Q27.15-1.27 27.19-1.81 27.24-2.34 27.24-2.98L27.24-2.98Q27.24-4.25 27.15-5.47 27.05-6.69 27.05-7.96L27.05-7.96Q27.05-8.35 27.15-8.79 27.24-9.23 27.24-9.72L27.24-9.72Q27.15-10.11 27.19-10.18 27.24-10.25 27.24-10.35L27.24-10.35Q27.24-10.64 27.22-10.94 27.19-11.23 27.19-11.52L27.19-11.52Q27.19-12.11 27.22-12.7 27.24-13.28 27.24-13.87L27.24-13.87Q27.24-14.11 27.22-14.38 27.19-14.65 27.19-14.89L27.19-14.89Q27.15-15.33 27.17-15.82 27.19-16.31 27.19-16.8L27.19-16.8Q27.19-19.14 27.12-21.44 27.05-23.73 27.05-26.07L27.05-26.07Q27.05-27.25 27.17-28.39 27.29-29.54 27.29-30.71L27.29-30.71Q27.29-30.86 27.19-31.1 27.1-31.35 27-31.45L27-31.45Q26.76-31.45 26.54-31.47 26.32-31.49 26.07-31.49L26.07-31.49Q25.53-31.49 25.05-31.35L25.05-31.35Q24.12-31.3 23.26-31.23 22.41-31.15 21.53-31.1L21.53-31.1Q20.94-31.15 20.82-31.13 20.7-31.1 20.55-31.1L20.55-31.1Q20.16-31.1 19.97-31.3L19.97-31.3 19.97-31.93Q19.68-32.52 19.72-32.57 19.77-32.62 19.77-32.71L19.77-32.71Q19.77-32.86 19.5-33.03 19.24-33.2 19.24-33.59L19.24-33.59Q19.19-33.98 19.04-34.18 18.89-34.38 18.89-34.57L18.89-34.57Q18.89-34.91 19.04-35.35L19.04-35.35Q19.48-35.6 19.89-35.69 20.31-35.79 20.85-35.94L20.85-35.94Q21.14-36.04 21.38-36.13 21.63-36.23 21.92-36.28L21.92-36.28Q22.26-36.33 22.6-36.33 22.95-36.33 23.29-36.38L23.29-36.38Q24.02-36.52 24.83-36.62 25.63-36.72 26.36-36.72L26.36-36.72Q27.05-36.72 27.73-36.55 28.42-36.38 28.95-36.38L28.95-36.38Q29.73-36.38 30.44-36.28 31.15-36.18 31.93-36.18L31.93-36.18Q32.03-36.18 32.25-36.11 32.47-36.04 32.76-36.04L32.76-36.04 37.5-36.04Q37.89-35.94 38.06-35.99 38.23-36.04 38.38-36.04L38.38-36.04Q38.77-36.04 39.11-35.99 39.45-35.94 39.84-35.94L39.84-35.94Q40.18-35.94 40.38-35.99L40.38-35.99Q40.77-35.94 41.11-35.77 41.45-35.6 41.89-35.6L41.89-35.6Q42.09-35.45 42.19-35.23 42.28-35.01 42.53-34.91ZM55.46-36.33L55.46-36.33Q55.81-35.69 55.81-34.86L55.81-34.86Q55.81-34.13 55.51-33.3 55.22-32.47 54.58-32.03L54.58-32.03Q54.15-31.05 53.73-30.44 53.32-29.83 52.92-29.25L52.92-29.25Q52.78-28.91 52.63-28.59 52.49-28.27 52.24-27.93L52.24-27.93Q52.09-27.69 51.61-26.95 51.12-26.22 50.61-25.42 50.09-24.61 49.7-23.88 49.31-23.14 49.31-22.95L49.31-22.95Q49.31-22.75 49.78-22.46 50.24-22.17 50.39-22.02L50.39-22.02Q50.63-21.78 50.85-21.53 51.07-21.29 51.31-21.04L51.31-21.04Q51.85-20.61 52.36-20.17 52.88-19.73 53.41-19.19L53.41-19.19Q54.44-18.26 55.56-17.43 56.68-16.6 57.56-15.48L57.56-15.48Q58.39-15.23 58.64-14.31 58.88-13.38 58.78-12.55L58.78-12.55Q58.88-12.4 58.95-12.26 59.03-12.11 59.13-11.91L59.13-11.91Q59.13-11.13 58.91-10.77 58.69-10.4 58.44-9.86L58.44-9.86Q58.2-9.38 58.12-8.89 58.05-8.4 57.81-8.01L57.81-8.01Q57.71-7.86 57.54-7.76 57.37-7.67 57.27-7.47L57.27-7.47Q57.08-7.13 56.95-6.67 56.83-6.2 56.64-5.81L56.64-5.81Q56.49-5.42 56.27-5.03 56.05-4.64 55.9-4.25L55.9-4.25Q55.81-4 55.73-3.66 55.66-3.32 55.27-3.17L55.27-3.17Q55.02-2.29 54.61-1.46 54.19-0.63 53.95 0.24L53.95 0.24Q53.51 0.39 52.85 0.81 52.19 1.22 51.8 1.22L51.8 1.22Q51.66 1.22 51.56 1.07 51.46 0.93 51.26 0.83L51.26 0.83Q51.17 0.78 51 0.83 50.83 0.88 50.73 0.88L50.73 0.88Q50.48 0.88 50.36 0.68 50.24 0.49 50.04 0.39L50.04 0.39Q49.9 0.44 49.75 0.49 49.6 0.54 49.46 0.54L49.46 0.54Q49.12 0.54 49.07 0.37 49.02 0.2 48.77 0.05L48.77 0.05Q48.19-0.24 48.09-0.49 47.99-0.73 47.8-0.83L47.8-0.83Q48.14-2.1 48.73-3.25 49.31-4.39 49.85-5.57L49.85-5.57Q50-5.96 50.21-6.3 50.43-6.64 50.63-7.03L50.63-7.03Q50.78-7.37 51.07-7.91 51.36-8.45 51.61-9.03 51.85-9.62 52.05-10.13 52.24-10.64 52.24-10.99L52.24-10.99Q52.24-11.67 51.85-12.01L51.85-12.01Q50.43-13.18 49.19-14.4 47.94-15.63 46.58-16.89L46.58-16.89Q45.7-17.68 44.67-18.51L44.67-18.51Q44.48-18.65 44.38-18.95 44.28-19.24 44.09-19.48L44.09-19.48Q43.99-19.68 43.79-19.78 43.6-19.87 43.5-20.07L43.5-20.07Q43.35-20.26 43.31-20.53 43.26-20.8 43.01-20.95L43.01-20.95Q42.77-21.19 42.43-21.24 42.08-21.29 41.84-21.53L41.84-21.53Q41.99-21.68 41.96-21.85 41.94-22.02 41.94-22.17L41.94-22.17Q41.94-22.51 42.23-22.66 42.52-22.8 42.52-23.19L42.52-23.19Q42.72-23.58 42.82-23.68L42.82-23.68Q43.35-25 44.04-26.22 44.72-27.44 45.45-28.66L45.45-28.66Q45.7-29.05 45.92-29.42 46.14-29.79 46.38-30.18L46.38-30.18Q46.53-30.52 46.65-30.79 46.77-31.05 47.02-31.3L47.02-31.3Q47.7-32.08 48.16-32.76 48.63-33.45 48.87-34.42L48.87-34.42Q48.92-34.67 49.07-35.11 49.21-35.55 49.43-35.99 49.65-36.43 49.9-36.77 50.14-37.11 50.43-37.11L50.43-37.11Q50.68-37.11 51.14-36.91 51.61-36.72 51.95-36.62L51.95-36.62Q52.24-36.52 52.56-36.45 52.88-36.38 53.17-36.38L53.17-36.38Q53.36-36.38 53.56-36.5 53.75-36.62 54-36.62L54-36.62Q54.39-36.62 54.73-36.5 55.07-36.38 55.46-36.33ZM82.95-36.28L83.44-36.13Q84.03-36.28 84.27-36.25 84.51-36.23 84.76-36.18L84.76-36.18Q85.05-35.99 85.25-35.69L85.25-35.69Q85.25-34.67 85.22-33.67 85.2-32.67 85.2-31.64L85.2-31.64Q85.2-29.79 85.25-27.93 85.3-26.07 85.25-24.22L85.25-24.22Q85.34-23.78 85.3-23.73 85.25-23.68 85.25-23.58L85.25-23.58Q85.25-21.73 85.34-19.92 85.44-18.12 85.44-16.26L85.44-16.26 85.44-9.77Q85.44-7.67 85.56-5.62 85.69-3.56 85.69-1.51L85.69-1.51Q85.69-1.32 85.44-0.98L85.44-0.98Q85.34-0.59 85.15-0.34L85.15-0.34Q84.71-0.29 84.32-0.49L84.32-0.49Q84.12-0.49 84.05-0.37 83.98-0.24 83.83-0.15L83.83-0.15Q83.44-0.15 83.2 0.05 82.95 0.24 82.61 0.24L82.61 0.24Q82.32 0.24 82.05 0.17 81.78 0.1 81.44 0.1L81.44 0.1Q81.34 0.1 81.14 0.27 80.95 0.44 80.85 0.49L80.85 0.49Q80.61 0.49 80.41 0.56 80.22 0.63 79.97 0.63L79.97 0.63Q79.73 0.44 79.75 0.05 79.78-0.34 79.44-0.44L79.44-0.44Q79.44-0.68 79.46-0.98 79.48-1.27 79.48-1.56L79.48-1.56Q79.48-3.47 79.39-5.4 79.29-7.32 79.24-9.23L79.24-9.23Q79.19-10.06 79.22-10.86 79.24-11.67 79.24-12.5L79.24-12.5Q79.24-12.94 79.24-13.38 79.24-13.82 79.14-14.21L79.14-14.21Q78.85-14.26 78.63-14.14 78.41-14.01 78.17-14.01L78.17-14.01Q77.14-13.67 76.8-13.33L76.8-13.33Q76.51-13.33 76.31-13.23 76.12-13.13 75.87-13.04L75.87-13.04Q75.48-12.94 75.11-12.87 74.75-12.79 74.36-12.65L74.36-12.65Q74.11-12.55 73.87-12.45 73.63-12.35 73.38-12.26L73.38-12.26Q72.84-12.06 72.31-11.89 71.77-11.72 71.23-11.52L71.23-11.52Q70.7-11.43 70.31-11.23 69.91-11.04 69.52-10.84L69.52-10.84Q69.18-8.54 69.16-6.47 69.13-4.39 69.28-2.34L69.28-2.34Q69.18-2.05 69.18-1.68 69.18-1.32 69.04-1.07L69.04-1.07Q68.5-0.93 68.33-1.05 68.16-1.17 67.96-1.27L67.96-1.27Q67.77-1.22 67.64-1.07 67.52-0.93 67.42-0.83L67.42-0.83Q67.03-0.83 66.81-0.66 66.59-0.49 66.4-0.39L66.4-0.39Q66.25-0.34 66.11-0.39 65.96-0.44 65.76-0.34L65.76-0.34Q65.28-0.34 65.3-0.46 65.32-0.59 65.18-0.59L65.18-0.59Q64.98-0.59 64.91-0.42 64.84-0.24 64.64-0.15L64.64-0.15Q64.45-0.05 64.2-0.02 63.96 0 63.71 0.1L63.71 0.1Q63.47-0.15 63.47-0.44 63.47-0.73 63.22-0.98L63.22-0.98Q63.13-1.66 63.1-2.32 63.08-2.98 62.93-3.66L62.93-3.66Q63.03-5.03 63.01-5.86 62.98-6.69 62.98-7.57L62.98-7.57Q62.98-8.35 62.93-9.13 62.88-9.91 62.83-10.69L62.83-10.69Q62.74-12.11 62.66-13.57 62.59-15.04 62.59-16.5L62.59-16.5Q62.59-17.72 62.71-18.9 62.83-20.07 62.83-21.29L62.83-21.29Q62.83-22.12 62.86-22.92 62.88-23.73 62.88-24.56L62.88-24.56Q62.88-25.24 62.86-25.9 62.83-26.56 62.83-27.2L62.83-27.2Q62.83-27.93 62.93-28.64 63.03-29.35 63.03-30.03L63.03-30.03Q63.03-30.86 62.93-31.67 62.83-32.47 62.83-33.3L62.83-33.3Q62.83-33.54 62.88-33.76 62.93-33.98 62.93-34.23L62.93-34.23Q62.88-34.77 62.98-34.89 63.08-35.01 63.18-35.21L63.18-35.21Q63.42-35.25 63.71-35.35 64.01-35.45 64.25-35.35L64.25-35.35Q64.54-35.64 65.06-35.64 65.57-35.64 65.81-35.99L65.81-35.99Q66.15-35.94 66.28-35.96 66.4-35.99 66.5-35.99L66.5-35.99Q66.94-35.89 66.96-36.01 66.98-36.13 67.13-36.13L67.13-36.13Q67.38-36.13 67.89-36.11 68.4-36.08 68.6-35.89L68.6-35.89Q69.08-33.3 69.13-30.62 69.18-27.93 69.18-25.29L69.18-25.29Q69.18-24.61 69.23-23.9 69.28-23.19 69.18-22.51L69.18-22.51Q69.18-22.22 69.13-21.95 69.08-21.68 69.08-21.39L69.08-21.39Q69.08-20.56 68.99-19.65 68.89-18.75 68.89-17.92L68.89-17.92Q69.47-17.58 69.89-17.7 70.31-17.82 70.7-17.97L70.7-17.97Q71.18-18.12 71.6-18.29 72.01-18.46 72.45-18.6L72.45-18.6Q72.84-18.8 73.31-18.92 73.77-19.04 74.16-19.14L74.16-19.14Q75.43-19.58 76.65-20.21 77.87-20.85 79.14-21.24L79.14-21.24Q79.05-23.93 79.05-26.59 79.05-29.25 79.05-31.88L79.05-31.88Q79.05-32.62 79.05-33.4 79.05-34.18 79.14-34.91L79.14-34.91Q79.19-35.11 79.26-35.23 79.34-35.35 79.34-35.6L79.34-35.6Q79.48-35.84 79.68-35.94 79.88-36.04 79.97-36.23L79.97-36.23Q80.07-36.13 80.19-36.06 80.31-35.99 80.46-35.94L80.46-35.94Q80.85-36.04 80.93-36.08 81-36.13 81.1-36.18L81.1-36.18Q81.34-36.28 81.73-36.28 82.12-36.28 82.37-36.28L82.37-36.28 82.95-36.28ZM115.13-19.38L115.13-19.38Q115.03-19.19 114.93-19.02 114.83-18.85 114.78-18.65L114.78-18.65Q114.98-18.46 115.15-18.24 115.32-18.02 115.32-17.77L115.32-17.77Q115.32-17.58 115.25-17.41 115.18-17.24 115.22-17.09L115.22-17.09Q115.03-16.75 114.81-16.46 114.59-16.16 114.49-15.82L114.49-15.82Q114.3-15.63 114.17-15.43 114.05-15.23 113.95-15.04L113.95-15.04Q113.71-14.94 113.64-14.72 113.56-14.5 113.37-14.36L113.37-14.36Q113.32-14.16 112.88-13.43 112.44-12.7 111.9-11.87 111.37-11.04 110.88-10.25 110.39-9.47 110.2-9.23L110.2-9.23Q110.1-8.98 109.98-8.84 109.85-8.69 109.71-8.5L109.71-8.5Q109.61-8.35 109.56-8.18 109.51-8.01 109.41-7.91L109.41-7.91Q109.32-7.71 109.19-7.57 109.07-7.42 108.97-7.18L108.97-7.18Q108.49-6.54 108-5.66 107.51-4.79 107.07-4.1L107.07-4.1Q106.83-3.71 106.61-3.32 106.39-2.93 106.14-2.54L106.14-2.54Q105.9-2.15 105.65-1.81 105.41-1.46 105.17-1.07L105.17-1.07Q104.78-0.78 104.48-0.37 104.19 0.05 103.8 0.34L103.8 0.34Q103.16 0.34 103.02-0.24L103.02-0.24Q102.38-0.39 102.38-0.24 102.38-0.1 102.38 0L102.38 0Q102.19 0.1 102.11 0.29 102.04 0.49 101.85 0.59L101.85 0.59Q101.45 0.49 101.19 0.27 100.92 0.05 100.43 0.1L100.43 0.1Q100.23-0.2 99.99-0.42 99.75-0.63 99.55-0.88L99.55-0.88Q99.45-1.17 99.28-1.37 99.11-1.56 98.96-1.76L98.96-1.76Q98.82-2 98.67-2.2 98.53-2.39 98.38-2.59L98.38-2.59Q98.04-3.03 97.72-3.44 97.4-3.86 97.16-4.3L97.16-4.3Q96.77-4.88 96.4-5.49 96.03-6.1 95.64-6.69L95.64-6.69Q95.45-6.98 95.25-7.28 95.06-7.57 94.91-7.86L94.91-7.86Q94.81-8.11 94.64-8.45 94.47-8.79 94.23-8.89L94.23-8.89Q94.13-9.28 93.89-9.47 93.64-9.67 93.4-9.96L93.4-9.96Q93.06-10.35 92.76-10.82 92.47-11.28 92.18-11.77L92.18-11.77Q91.2-13.13 90.35-14.45 89.49-15.77 88.66-17.19L88.66-17.19Q88.91-17.97 88.91-18.36 88.91-18.75 89.15-18.99L89.15-18.99Q89.15-19.19 89.25-19.58L89.25-19.58Q89.88-20.65 90.47-21.53L90.47-21.53Q91.01-22.36 91.23-22.9 91.45-23.44 91.69-24.02L91.69-24.02Q91.93-24.17 92.08-24.39 92.23-24.61 92.47-24.8L92.47-24.8Q92.57-25.34 92.91-25.71 93.25-26.07 93.35-26.61L93.35-26.61Q93.79-26.95 93.84-27.39L93.84-27.39Q94.47-27.83 94.62-28.56L94.62-28.56Q95.01-28.96 95.28-29.44 95.55-29.93 95.79-30.47L95.79-30.47Q96.38-30.96 96.72-31.74L96.72-31.74Q97.01-31.93 97.16-32.28 97.3-32.62 97.55-32.86L97.55-32.86Q97.94-33.5 98.16-33.91 98.38-34.33 98.62-34.77L98.62-34.77Q98.96-34.77 99.06-35.01 99.16-35.25 99.45-35.21L99.45-35.21Q99.45-35.64 99.7-35.99L99.7-35.99Q99.79-36.04 99.99-36.11 100.19-36.18 100.19-36.28L100.19-36.28Q100.09-36.87 100.23-36.96 100.38-37.06 100.48-37.16L100.48-37.16Q101.02-37.06 101.21-37.01 101.41-36.96 101.85-36.67L101.85-36.67Q102.33-36.67 102.53-36.47 102.72-36.28 102.97-36.18L102.97-36.18Q103.16-35.99 103.29-35.79 103.41-35.6 103.65-35.5L103.65-35.5Q104.04-34.96 104.48-34.33 104.92-33.69 105.31-33.15L105.31-33.15Q105.85-32.42 106.41-31.76 106.97-31.1 107.46-30.32L107.46-30.32Q107.61-30.08 108-29.47 108.39-28.86 108.88-28.17 109.37-27.49 109.76-26.93 110.15-26.37 110.29-26.27L110.29-26.27Q110.44-26.03 110.93-25.34 111.42-24.66 111.98-23.9 112.54-23.14 113.08-22.46 113.61-21.78 113.81-21.58L113.81-21.58Q114.35-20.85 114.61-20.39 114.88-19.92 115.13-19.38ZM103.95-10.21L103.95-10.21Q104.48-10.94 104.78-11.52 105.07-12.11 105.36-12.7L105.36-12.7Q105.85-13.28 105.95-13.53 106.04-13.77 106.19-14.01L106.19-14.01Q106.58-14.6 107-15.19 107.41-15.77 107.66-16.46L107.66-16.46Q107.95-16.65 108.1-16.94 108.24-17.24 108.53-17.48L108.53-17.48Q108.24-18.51 107.85-19.07 107.46-19.63 107.07-20.17L107.07-20.17Q106.92-20.41 106.78-20.65 106.63-20.9 106.48-21.14L106.48-21.14Q106.29-21.29 106.17-21.44 106.04-21.58 105.9-21.73L105.9-21.73Q105.8-21.97 105.61-22.36L105.61-22.36Q105.41-22.61 105.21-22.8 105.02-23 104.87-23.29L104.87-23.29Q104.68-23.49 104.38-23.83 104.09-24.17 103.77-24.58 103.46-25 103.21-25.37 102.97-25.73 102.82-25.98L102.82-25.98Q102.72-26.22 102.65-26.39 102.58-26.56 102.48-26.76L102.48-26.76Q102.24-27.1 101.99-27.37 101.75-27.64 101.5-27.98L101.5-27.98Q101.36-27.88 101.24-27.86 101.11-27.83 101.02-27.73L101.02-27.73Q100.67-27.1 100.26-26.56 99.84-26.03 99.45-25.39L99.45-25.39Q99.11-24.8 98.77-24.19 98.43-23.58 98.09-23L98.09-23Q97.84-22.66 97.62-22.34 97.4-22.02 97.16-21.63L97.16-21.63Q96.91-21.29 96.74-20.92 96.57-20.56 96.33-20.21L96.33-20.21Q95.94-19.73 95.69-19.34 95.45-18.95 95.2-18.41L95.2-18.41Q95.35-18.12 95.67-17.6 95.99-17.09 96.33-16.58 96.67-16.06 96.94-15.63 97.21-15.19 97.26-15.04L97.26-15.04Q97.65-14.7 97.89-14.28 98.13-13.87 98.53-13.48L98.53-13.48Q98.72-13.09 98.96-12.79 99.21-12.5 99.45-12.16L99.45-12.16Q99.7-11.82 100.09-11.16 100.48-10.5 100.87-9.81 101.26-9.13 101.65-8.54 102.04-7.96 102.28-7.81L102.28-7.81Q102.77-8.35 103.09-9.01 103.41-9.67 103.95-10.21ZM122.25-35.5L122.25-35.5Q122.45-35.55 122.59-35.64 122.74-35.74 122.94-35.74L122.94-35.74Q123.08-35.69 123.16-35.55 123.23-35.4 123.38-35.3L123.38-35.3Q123.52-35.4 123.64-35.5 123.77-35.6 123.91-35.64L123.91-35.64Q124.4-35.5 124.45-35.16L124.45-35.16Q124.69-35.06 124.89-34.94 125.09-34.81 125.33-34.77L125.33-34.77Q125.43-34.57 125.57-34.47 125.72-34.38 125.92-34.18L125.92-34.18Q126.4-34.08 127.21-33.64 128.01-33.2 128.5-32.96L128.5-32.96Q128.99-32.71 129.48-32.47 129.97-32.23 130.41-31.93L130.41-31.93Q130.85-31.69 131.29-31.37 131.73-31.05 132.21-30.86L132.21-30.86Q132.65-30.32 133.34-30.18 134.02-30.03 134.56-29.64L134.56-29.64Q135-29.39 135.39-29.13 135.78-28.86 136.17-28.61L136.17-28.61Q136.32-28.37 136.54-28.22 136.76-28.08 136.95-27.83L136.95-27.83Q137.93-27.29 138.07-27L138.07-27Q138.22-26.9 138.51-26.71 138.81-26.51 139.1-26.29 139.39-26.07 139.64-25.85 139.88-25.63 139.93-25.44L139.93-25.44Q139.73-25 139.73-24.73 139.73-24.46 139.54-24.27L139.54-24.27Q139.83-23.88 139.83-23.54L139.83-23.54Q139.59-22.95 139-22.56L139-22.56Q138.85-22.17 138.54-21.95 138.22-21.73 138.12-21.34L138.12-21.34Q137.73-21.09 137.66-20.95 137.59-20.8 137.49-20.65L137.49-20.65Q136.56-19.68 135.75-18.97 134.95-18.26 134.26-17.43L134.26-17.43Q133.78-17.19 133.43-16.82 133.09-16.46 132.8-16.02L132.8-16.02Q132.41-15.63 132.04-15.26 131.68-14.89 131.29-14.55L131.29-14.55Q131.19-14.36 130.97-14.23 130.75-14.11 130.65-13.87L130.65-13.87Q130.11-13.62 129.77-13.18 129.43-12.74 128.94-12.45L128.94-12.45 128.6-11.96Q128.45-11.87 128.19-11.65 127.92-11.43 127.65-11.16 127.38-10.89 127.18-10.64 126.99-10.4 126.94-10.25L126.94-10.25Q126.79-10.21 126.48-9.96 126.16-9.72 125.84-9.42 125.52-9.13 125.26-8.84 124.99-8.54 124.94-8.45L124.94-8.45 124.45-8.11Q124.5-6.79 124.52-5.44 124.55-4.1 124.55-2.78L124.55-2.78 124.55-1.12 124.21-0.68Q123.96-0.68 123.82-0.78 123.67-0.88 123.47-0.88L123.47-0.88Q123.28-0.88 123.11-0.68 122.94-0.49 122.79-0.39L122.79-0.39Q122.45-0.34 122.23-0.22 122.01-0.1 121.76 0L121.76 0Q121.47-0.15 121.18-0.15L121.18-0.15Q120.54 0 120.57-0.1 120.59-0.2 120.35-0.2L120.35-0.2Q119.96 0.2 119.86 0.2L119.86 0.2Q119.67 0.2 119.49 0.24 119.32 0.29 119.13 0.29L119.13 0.29Q118.93-0.1 118.81-0.51 118.69-0.93 118.35-1.32L118.35-1.32Q118.49-1.81 118.3-2L118.3-2Q118.59-2.54 118.54-3.22 118.49-3.91 118.49-4.49L118.49-4.49Q118.49-4.83 118.52-5.15 118.54-5.47 118.54-5.76L118.54-5.76Q118.54-6.35 118.44-6.96 118.35-7.57 118.35-8.2L118.35-8.2Q118.35-9.67 118.44-11.16 118.54-12.65 118.54-14.11L118.54-14.11Q118.54-14.94 118.47-15.82 118.4-16.7 118.4-17.53L118.4-17.53Q118.4-18.07 118.44-18.53 118.49-18.99 118.54-19.43L118.54-19.43Q118.54-21.68 118.62-23.75 118.69-25.83 118.69-27.88L118.69-27.88Q118.69-28.56 118.66-29.17 118.64-29.79 118.64-30.47L118.64-30.47Q118.64-30.81 118.69-31.15 118.74-31.49 118.74-31.84L118.74-31.84Q118.88-33.35 118.88-34.86L118.88-34.86 118.84-35.64Q119.03-35.94 119.42-35.94L119.42-35.94Q119.96-35.94 120.25-35.6L120.25-35.6Q120.59-35.64 120.91-35.72 121.23-35.79 121.52-35.79L121.52-35.79Q121.96-35.79 122.25-35.5ZM125.23-27.88L125.13-27.73Q125.13-27.49 125.09-27.37 125.04-27.25 124.99-27.15L124.99-27.15Q124.99-27 125.01-26.83 125.04-26.66 125.04-26.46L125.04-26.46Q125.04-25.34 125.01-24.24 124.99-23.14 124.99-22.07L124.99-22.07 124.89-19.48Q124.89-19.24 124.94-18.95 124.99-18.65 124.99-18.41L124.99-18.41Q124.99-18.16 124.94-17.92 124.89-17.68 124.89-17.43L124.89-17.43Q124.89-16.8 125.04-16.16L125.04-16.16Q125.28-16.26 125.38-16.48 125.48-16.7 125.62-16.85L125.62-16.85Q126.75-17.87 127.72-18.99 128.7-20.12 129.72-21.24L129.72-21.24Q130.6-22.17 131.24-22.75 131.87-23.34 132.21-24.17L132.21-24.17Q131.38-24.71 130.51-25.27 129.63-25.83 128.65-26.22L128.65-26.22Q128.6-26.32 128.38-26.46 128.16-26.61 127.92-26.73 127.67-26.86 127.43-26.95 127.18-27.05 127.09-27.05L127.09-27.05Q126.65-27.44 126.16-27.54L126.16-27.54Q125.82-27.54 125.57-27.66 125.33-27.78 125.23-27.88L125.23-27.88Z" opacity="1" transform="matrix(1,0,0,1,0,0)" fill="#202046" class="wordmark-text-0" data-fill-palette-color="primary" id="text-0"></path></svg></g></svg></g></svg></g></svg></g><g transform="matrix(1,0,0,1,0,0.2731663865546139)"><svg viewBox="0 0 218.53310924369748 109.26655462184874" height="109.26655462184874" width="218.53310924369748"><g><svg xmlns="http://www.w3.org/2000/svg" viewBox="16 136 480 240" x="0" y="0" height="109.26655462184874" width="218.53310924369748" class="icon-icon-0" data-fill-palette-color="accent" id="icon-0"><g fill="#fe633d" data-fill-palette-color="accent"><path d="M448 136H64a48.054 48.054 0 0 0-48 48V328a48.054 48.054 0 0 0 48 48H448a48.054 48.054 0 0 0 48-48V184A48.054 48.054 0 0 0 448 136Zm-80 16V360H144V152ZM32 328V184a32.036 32.036 0 0 1 32-32h64V360H64A32.036 32.036 0 0 1 32 328Zm448 0a32.036 32.036 0 0 1-32 32H384V152h64a32.036 32.036 0 0 1 32 32Z" fill="#fe633d" data-fill-palette-color="accent"></path><path d="M80 240a32 32 0 1 0-32-32A32.036 32.036 0 0 0 80 240Zm0-48a16 16 0 1 1-16 16A16.019 16.019 0 0 1 80 192Z" fill="#fe633d" data-fill-palette-color="accent"></path><rect x="72" y="264" width="16" height="16" fill="#fe633d" data-fill-palette-color="accent"></rect><rect x="72" y="312" width="16" height="16" fill="#fe633d" data-fill-palette-color="accent"></rect><rect x="96" y="288" width="16" height="16" fill="#fe633d" data-fill-palette-color="accent"></rect><rect x="48" y="288" width="16" height="16" fill="#fe633d" data-fill-palette-color="accent"></rect><path d="M432 272a32 32 0 1 0 32 32A32.036 32.036 0 0 0 432 272Zm0 48a16 16 0 1 1 16-16A16.019 16.019 0 0 1 432 320Z" fill="#fe633d" data-fill-palette-color="accent"></path><rect x="424" y="232" width="16" height="16" fill="#fe633d" data-fill-palette-color="accent"></rect><rect x="424" y="184" width="16" height="16" fill="#fe633d" data-fill-palette-color="accent"></rect><rect x="448" y="208" width="16" height="16" fill="#fe633d" data-fill-palette-color="accent"></rect><rect x="400" y="208" width="16" height="16" fill="#fe633d" data-fill-palette-color="accent"></rect><rect x="216" y="248" width="80" height="16" transform="translate(-106.039 256) rotate(-45)" fill="#fe633d" data-fill-palette-color="accent"></rect><rect x="254.628" y="270.627" width="48" height="16" transform="translate(-115.411 278.622) rotate(-44.999)" fill="#fe633d" data-fill-palette-color="accent"></rect><rect x="209.373" y="225.372" width="48" height="16" transform="translate(-96.666 233.368) rotate(-44.999)" fill="#fe633d" data-fill-palette-color="accent"></rect></g></svg></g></svg></g></svg></g><defs></defs></svg><rect width="395.52" height="64.29810020110004" fill="none" stroke="none" visibility="hidden"></rect></g></svg></g></svg>